<svg width="20" height="20" viewBox="0 0 20 20" fill="none" xmlns="http://www.w3.org/2000/svg">
<path d="M9.54141 20C7.35195 20 6.57305 19.5574 6.57305 18.5961V17.0508C5.98047 16.8018 5.42656 16.4832 4.91836 16.0973L3.57851 16.8699C3.39801 16.9755 3.18883 17.0267 2.97851 17.0267C1.54453 17.0267 0 13.3989 0 12.7845C0 12.3607 0.226797 11.9509 0.613671 11.7271L1.94844 10.9568C1.94062 10.6289 1.91992 10.3125 1.91992 9.96484C1.91992 9.61719 1.94068 9.33477 1.9834 9.00898L0.647661 8.27344C0.261328 8.05078 0.034766 7.64062 0.034766 7.21484C0.034766 6.72344 1.51836 2.96875 3.01133 2.96875C3.22293 2.96875 3.43398 3.02102 3.61758 3.12934L4.95156 3.90156C5.45937 3.51602 6.01406 3.19727 6.57266 2.94805V1.40273C6.57266 0.169336 8.00234 0 9.57661 0C11.1277 0 12.5101 0.159492 12.5101 1.40273V2.94805C13.1027 3.19707 13.6566 3.51562 14.1648 3.90156L15.5047 3.12891C15.6852 3.02332 15.8946 2.97215 16.1051 2.97215C17.5297 2.97215 19.0832 6.58738 19.0832 7.21434C19.0832 7.63816 18.8564 8.04793 18.4695 8.27176L17.1348 9.04207C17.1775 9.36801 17.1982 9.68426 17.1982 9.99793C17.1982 10.3116 17.1775 10.628 17.1348 10.9538L18.4703 11.7253C18.8568 11.948 19.0836 12.3577 19.0836 12.7819C19.0836 13.2737 17.6 17.028 16.1066 17.028C15.8949 17.028 15.6836 16.9757 15.5008 16.8674L14.1652 16.0971C13.6566 16.4829 13.1031 16.8014 12.5105 17.0506V18.5959C12.5453 19.5547 11.768 20 9.54141 20ZM5.08047 14.5781C6.48359 15.782 7.125 15.9203 7.85586 16.1797V18.5957C8.40703 18.6873 8.98164 18.7413 9.56523 18.7413C10.1492 18.7413 10.7422 18.6873 11.3305 18.5627L11.2932 16.1799C11.921 15.9572 12.6674 15.7807 14.0686 14.5784L16.1628 15.7881C16.8963 14.9264 17.4819 13.9143 17.8577 12.7971L15.7897 11.6034C15.8969 11.0178 15.9795 10.61 15.9795 10.0772C15.9795 9.64945 15.9262 9.14086 15.7897 8.39516L17.878 7.19008C17.494 6.10609 16.9046 5.08187 16.1163 4.1932L14.0682 5.42016C12.6651 4.21625 12.0237 4.07797 11.2928 3.81859V1.40273C10.7417 1.31117 10.1671 1.25715 9.58351 1.25715C8.99948 1.25715 8.40652 1.31117 7.81823 1.4357L7.85547 3.81852C7.22891 4.04297 6.48281 4.18359 5.08047 5.42188L2.98789 4.21094C2.24609 5.08242 1.65664 6.10664 1.28125 7.23711L3.36094 8.3957C3.25391 8.98047 3.17109 9.39062 3.17109 9.88672C3.17109 10.3145 3.22437 10.823 3.3609 11.5688L1.27262 12.7738C1.65656 13.8578 2.24605 14.882 3.03434 15.7707L5.08047 14.5781ZM9.57661 13.7148C7.50859 13.7148 5.82656 12.0328 5.82656 9.96484C5.82656 7.89688 7.51016 6.21484 9.57661 6.21484C11.643 6.21484 13.3266 7.89688 13.3266 9.96484C13.3266 12.0328 11.643 13.7148 9.57661 13.7148ZM9.57661 7.46484C8.19766 7.46484 7.07656 8.58672 7.07656 9.96484C7.07656 11.343 8.19766 12.4648 9.57661 12.4648C10.9555 12.4648 12.0766 11.343 12.0766 9.96484C12.0766 8.58672 10.9555 7.46484 9.57661 7.46484Z" fill="#00C614"/>
</svg>
