<svg width="23" height="20" viewBox="0 0 23 20" fill="none" xmlns="http://www.w3.org/2000/svg">
<path d="M22.4648 9.99992C22.4648 9.82664 22.3933 9.65453 22.253 9.53114L11.6632 0.156133C11.5454 0.0523828 11.3977 0 11.2499 0C11.1021 0 10.9531 0.0523828 10.8359 0.156133L0.24605 9.53114C0.07148 9.65614 0 9.82801 0 9.99992C0 10.3483 0.282734 10.6245 0.626563 10.6245C0.773323 10.6245 0.920313 10.5732 1.03828 10.4685L2.5 9.17867L2.50021 16.874C2.50034 18.5975 3.9023 19.9999 5.62495 19.9999H16.8398C18.5629 19.9999 19.9297 18.5987 19.9297 16.91V9.21473L21.4609 10.4686C21.582 10.5741 21.7265 10.6249 21.8398 10.6249C22.2148 10.6249 22.4648 10.3475 22.4648 9.99992ZM18.7148 8.12489V16.8749C18.7148 17.9088 17.8738 18.7499 16.875 18.7499H5.62495C4.59097 18.7499 3.78511 17.9088 3.78511 16.8749V8.12489C3.78511 8.11016 3.77771 8.09788 3.77672 8.0834L11.25 1.45848L18.7578 8.08348C18.7578 8.09754 18.7148 8.10926 18.7148 8.12489Z" fill="#6B6C72"/>
</svg>
