<svg width="15" height="20" viewBox="0 0 15 20" fill="none" xmlns="http://www.w3.org/2000/svg">
<path d="M14.2695 4.89453L10.1094 0.734379C9.63672 0.263363 9.00391 3.906e-06 8.33984 3.906e-06L2.5 0C1.11914 0 0 1.11914 0 2.5L0.000253906 17.5C0.000253906 18.8808 1.11939 20 2.50025 20H12.5C13.8809 20 15 18.8808 15 17.5V6.66015C15 5.9961 14.7383 5.36328 14.2695 4.89453ZM8.75 1.33125C8.92488 1.39242 9.08852 1.48149 9.22344 1.61637L13.3836 5.77653C13.5195 5.91016 13.6094 6.07422 13.668 6.25H9.375C9.03125 6.25 8.75 5.96875 8.75 5.625V1.33125ZM13.75 17.5C13.75 18.189 13.1891 18.75 12.5 18.75H2.5C1.81094 18.75 1.25 18.189 1.25 17.5V2.5C1.25 1.81094 1.81094 1.25 2.5 1.25H7.5V5.625C7.5 6.66016 8.33984 7.5 9.375 7.5H13.75V17.5ZM3.75 10.625C3.75 10.9687 4.03125 11.25 4.375 11.25H10.625C10.9688 11.25 11.25 10.9687 11.25 10.625C11.25 10.2812 10.9688 10 10.625 10H4.375C4.03125 10 3.75 10.2812 3.75 10.625ZM10.625 12.5H4.375C4.03125 12.5 3.75 12.7812 3.75 13.125C3.75 13.4687 4.03125 13.75 4.375 13.75H10.625C10.9702 13.75 11.25 13.4701 11.25 13.125C11.25 12.7798 10.9688 12.5 10.625 12.5ZM10.625 15H4.375C4.03125 15 3.75 15.2812 3.75 15.625C3.75 15.9687 4.03125 16.25 4.375 16.25H10.625C10.9702 16.25 11.25 15.9701 11.25 15.625C11.25 15.2798 10.9688 15 10.625 15Z" fill="#00C614"/>
</svg>
